<svg xmlns="http://www.w3.org/2000/svg" viewBox="0 0 512 512" width="512" height="512">
  <defs>
    <clipPath id="tile"><rect x="16" y="16" width="480" height="480" rx="108"/></clipPath>
    <pattern id="argyle" width="120" height="160" patternUnits="userSpaceOnUse">
      <rect width="120" height="160" fill="#06110F"/>
      <polygon points="60,0 120,80 60,160 0,80" fill="#173C35"/>
      <polygon points="0,0 60,80 0,160" fill="#0E2520"/>
      <polygon points="120,0 60,80 120,160" fill="#0E2520"/>
      <g stroke="#45B29D" stroke-width="2" opacity="0.30" stroke-dasharray="6 7">
        <path d="M60 -80 L200 80 M60 -80 L-80 80 M60 80 L200 240 M60 80 L-80 240 M60 240 L200 400 M60 240 L-80 400"/>
      </g>
    </pattern>
  </defs>
  <g clip-path="url(#tile)"><rect x="16" y="16" width="480" height="480" fill="url(#argyle)"/></g>
  <rect x="16" y="16" width="480" height="480" rx="108" fill="none" stroke="#2BD3D3" stroke-width="6"/>
  <g transform="translate(142.0 142.0) scale(9.5)" fill="#45B29D"><path d="M13.736.083q4.9353-.6785 5.5252 4.1915-1.104 5.4862-6.4778 7.1446-1.3131.3981-2.6673.1905-.409-.133-.6668-.4763a3.91 3.91 0 0 1 0-1.7147q4.0727.4425 6.4778-3.0484.8668-1.3161.5715-2.8578-.5576-1.2044-1.9052-1.1432-2.7075.4504-4.382 2.6674-3.9135 5.7548-2.4768 12.5745 1.59 5.4391 6.954 3.5246 1.458-.7474 2.6674-1.81 1.627.6834.8573 2.2864-4.452 3.9011-9.8119 1.4289-3.1384-2.512-3.5247-6.573-.858-7.33 3.62-13.1462Q10.673.9268 13.736.083"/></g>
</svg>
